# xmcd
# Track frame offsets:
# 150
# 12837
# 24035
# 40092
# 53822
# 76687
# 90160
# 109335
# 125532
# 144920
# 156925
# 172357
# 190570
# 201962
# 216055
# 227162
# 241440
# 254080
# 266097
# 281875
#
# Disc length: 3938 seconds
# Revision: 0
# Processed by: cddbd v1.4PL0 Copyright (c) Steve Scherf et al.
# Submitted via: VisiTrax 2.9.3.171 - For more info visit www.synapsa.com
#
DISCID=140f6014
DTITLE=Johnny Mathis - 20 Greatest Hits
DYEAR=2002
DGENRE=Blues
TTITLE0=Wonderful, Wonderful
TTITLE1=The Twelfth Of Never
TTITLE2=Misty
TTITLE3=Chances Are
TTITLE4=Night And Day
TTITLE5=I'll Never Fall In Love Again
TTITLE6=Hello Young Lovers
TTITLE7=I Only Have Eyes For You
TTITLE8=Begin The Beguine
TTITLE9=A Wonderful Day Like Today
TTITLE10=Embraceable You
TTITLE11=Stranger In Paradise
TTITLE12=In The Still Of The Night
TTITLE13=Come To Me
TTITLE14=Wild Is The Wind
TTITLE15=What Will My Mary Say
TTITLE16=A Certain Smile
TTITLE17=Teacher Teacher
TTITLE18=I've Grown Accustomed To Her Face
TTITLE19=Too Much, Too Little, Too Late
EXTD=
EXTT0=
EXTT1=
EXTT2=
EXTT3=
EXTT4=
EXTT5=
EXTT6=
EXTT7=
EXTT8=
EXTT9=
EXTT10=
EXTT11=
EXTT12=
EXTT13=
EXTT14=
EXTT15=
EXTT16=
EXTT17=
EXTT18=
EXTT19=
PLAYORDER=
